<?xml version="1.0"?>
<svg xmlns="http://www.w3.org/2000/svg" xmlns:xlink="http://www.w3.org/1999/xlink" version="1.1" width="1166px" height="1166px" viewBox="0 0 1166 1166"><defs><rect id="block" width="33" height="33" fill="#000000" fill-opacity="0.99212598425197"/></defs><rect x="0" y="0" width="1166" height="1166" fill="#ffffff" fill-opacity="0.99212598425197"/><use x="38" y="38" xlink:href="#block"/><use x="71" y="38" xlink:href="#block"/><use x="104" y="38" xlink:href="#block"/><use x="137" y="38" xlink:href="#block"/><use x="170" y="38" xlink:href="#block"/><use x="203" y="38" xlink:href="#block"/><use x="236" y="38" xlink:href="#block"/><use x="368" y="38" xlink:href="#block"/><use x="434" y="38" xlink:href="#block"/><use x="533" y="38" xlink:href="#block"/><use x="566" y="38" xlink:href="#block"/><use x="599" y="38" xlink:href="#block"/><use x="632" y="38" xlink:href="#block"/><use x="731" y="38" xlink:href="#block"/><use x="830" y="38" xlink:href="#block"/><use x="896" y="38" xlink:href="#block"/><use x="929" y="38" xlink:href="#block"/><use x="962" y="38" xlink:href="#block"/><use x="995" y="38" xlink:href="#block"/><use x="1028" y="38" xlink:href="#block"/><use x="1061" y="38" xlink:href="#block"/><use x="1094" y="38" xlink:href="#block"/><use x="38" y="71" xlink:href="#block"/><use x="236" y="71" xlink:href="#block"/><use x="302" y="71" xlink:href="#block"/><use x="335" y="71" xlink:href="#block"/><use x="368" y="71" xlink:href="#block"/><use x="401" y="71" xlink:href="#block"/><use x="434" y="71" xlink:href="#block"/><use x="467" y="71" xlink:href="#block"/><use x="500" y="71" xlink:href="#block"/><use x="566" y="71" xlink:href="#block"/><use x="599" y="71" xlink:href="#block"/><use x="632" y="71" xlink:href="#block"/><use x="698" y="71" xlink:href="#block"/><use x="731" y="71" xlink:href="#block"/><use x="764" y="71" xlink:href="#block"/><use x="830" y="71" xlink:href="#block"/><use x="896" y="71" xlink:href="#block"/><use x="1094" y="71" xlink:href="#block"/><use x="38" y="104" xlink:href="#block"/><use x="104" y="104" xlink:href="#block"/><use x="137" y="104" xlink:href="#block"/><use x="170" y="104" xlink:href="#block"/><use x="236" y="104" xlink:href="#block"/><use x="302" y="104" xlink:href="#block"/><use x="335" y="104" xlink:href="#block"/><use x="401" y="104" xlink:href="#block"/><use x="434" y="104" xlink:href="#block"/><use x="533" y="104" xlink:href="#block"/><use x="566" y="104" xlink:href="#block"/><use x="665" y="104" xlink:href="#block"/><use x="698" y="104" xlink:href="#block"/><use x="731" y="104" xlink:href="#block"/><use x="896" y="104" xlink:href="#block"/><use x="962" y="104" xlink:href="#block"/><use x="995" y="104" xlink:href="#block"/><use x="1028" y="104" xlink:href="#block"/><use x="1094" y="104" xlink:href="#block"/><use x="38" y="137" xlink:href="#block"/><use x="104" y="137" xlink:href="#block"/><use x="137" y="137" xlink:href="#block"/><use x="170" y="137" xlink:href="#block"/><use x="236" y="137" xlink:href="#block"/><use x="302" y="137" xlink:href="#block"/><use x="368" y="137" xlink:href="#block"/><use x="401" y="137" xlink:href="#block"/><use x="434" y="137" xlink:href="#block"/><use x="500" y="137" xlink:href="#block"/><use x="566" y="137" xlink:href="#block"/><use x="599" y="137" xlink:href="#block"/><use x="632" y="137" xlink:href="#block"/><use x="764" y="137" xlink:href="#block"/><use x="896" y="137" xlink:href="#block"/><use x="962" y="137" xlink:href="#block"/><use x="995" y="137" xlink:href="#block"/><use x="1028" y="137" xlink:href="#block"/><use x="1094" y="137" xlink:href="#block"/><use x="38" y="170" xlink:href="#block"/><use x="104" y="170" xlink:href="#block"/><use x="137" y="170" xlink:href="#block"/><use x="170" y="170" xlink:href="#block"/><use x="236" y="170" xlink:href="#block"/><use x="302" y="170" xlink:href="#block"/><use x="335" y="170" xlink:href="#block"/><use x="368" y="170" xlink:href="#block"/><use x="434" y="170" xlink:href="#block"/><use x="467" y="170" xlink:href="#block"/><use x="566" y="170" xlink:href="#block"/><use x="599" y="170" xlink:href="#block"/><use x="665" y="170" xlink:href="#block"/><use x="731" y="170" xlink:href="#block"/><use x="764" y="170" xlink:href="#block"/><use x="797" y="170" xlink:href="#block"/><use x="896" y="170" xlink:href="#block"/><use x="962" y="170" xlink:href="#block"/><use x="995" y="170" xlink:href="#block"/><use x="1028" y="170" xlink:href="#block"/><use x="1094" y="170" xlink:href="#block"/><use x="38" y="203" xlink:href="#block"/><use x="236" y="203" xlink:href="#block"/><use x="302" y="203" xlink:href="#block"/><use x="368" y="203" xlink:href="#block"/><use x="500" y="203" xlink:href="#block"/><use x="599" y="203" xlink:href="#block"/><use x="731" y="203" xlink:href="#block"/><use x="764" y="203" xlink:href="#block"/><use x="797" y="203" xlink:href="#block"/><use x="896" y="203" xlink:href="#block"/><use x="1094" y="203" xlink:href="#block"/><use x="38" y="236" xlink:href="#block"/><use x="71" y="236" xlink:href="#block"/><use x="104" y="236" xlink:href="#block"/><use x="137" y="236" xlink:href="#block"/><use x="170" y="236" xlink:href="#block"/><use x="203" y="236" xlink:href="#block"/><use x="236" y="236" xlink:href="#block"/><use x="302" y="236" xlink:href="#block"/><use x="368" y="236" xlink:href="#block"/><use x="434" y="236" xlink:href="#block"/><use x="500" y="236" xlink:href="#block"/><use x="566" y="236" xlink:href="#block"/><use x="632" y="236" xlink:href="#block"/><use x="698" y="236" xlink:href="#block"/><use x="764" y="236" xlink:href="#block"/><use x="830" y="236" xlink:href="#block"/><use x="896" y="236" xlink:href="#block"/><use x="929" y="236" xlink:href="#block"/><use x="962" y="236" xlink:href="#block"/><use x="995" y="236" xlink:href="#block"/><use x="1028" y="236" xlink:href="#block"/><use x="1061" y="236" xlink:href="#block"/><use x="1094" y="236" xlink:href="#block"/><use x="335" y="269" xlink:href="#block"/><use x="368" y="269" xlink:href="#block"/><use x="401" y="269" xlink:href="#block"/><use x="434" y="269" xlink:href="#block"/><use x="632" y="269" xlink:href="#block"/><use x="665" y="269" xlink:href="#block"/><use x="698" y="269" xlink:href="#block"/><use x="731" y="269" xlink:href="#block"/><use x="797" y="269" xlink:href="#block"/><use x="830" y="269" xlink:href="#block"/><use x="104" y="302" xlink:href="#block"/><use x="203" y="302" xlink:href="#block"/><use x="236" y="302" xlink:href="#block"/><use x="269" y="302" xlink:href="#block"/><use x="302" y="302" xlink:href="#block"/><use x="335" y="302" xlink:href="#block"/><use x="368" y="302" xlink:href="#block"/><use x="401" y="302" xlink:href="#block"/><use x="434" y="302" xlink:href="#block"/><use x="500" y="302" xlink:href="#block"/><use x="533" y="302" xlink:href="#block"/><use x="566" y="302" xlink:href="#block"/><use x="665" y="302" xlink:href="#block"/><use x="731" y="302" xlink:href="#block"/><use x="863" y="302" xlink:href="#block"/><use x="929" y="302" xlink:href="#block"/><use x="962" y="302" xlink:href="#block"/><use x="995" y="302" xlink:href="#block"/><use x="1028" y="302" xlink:href="#block"/><use x="1061" y="302" xlink:href="#block"/><use x="38" y="335" xlink:href="#block"/><use x="170" y="335" xlink:href="#block"/><use x="269" y="335" xlink:href="#block"/><use x="335" y="335" xlink:href="#block"/><use x="467" y="335" xlink:href="#block"/><use x="533" y="335" xlink:href="#block"/><use x="566" y="335" xlink:href="#block"/><use x="665" y="335" xlink:href="#block"/><use x="698" y="335" xlink:href="#block"/><use x="764" y="335" xlink:href="#block"/><use x="797" y="335" xlink:href="#block"/><use x="830" y="335" xlink:href="#block"/><use x="929" y="335" xlink:href="#block"/><use x="995" y="335" xlink:href="#block"/><use x="1061" y="335" xlink:href="#block"/><use x="1094" y="335" xlink:href="#block"/><use x="38" y="368" xlink:href="#block"/><use x="71" y="368" xlink:href="#block"/><use x="104" y="368" xlink:href="#block"/><use x="170" y="368" xlink:href="#block"/><use x="203" y="368" xlink:href="#block"/><use x="236" y="368" xlink:href="#block"/><use x="302" y="368" xlink:href="#block"/><use x="401" y="368" xlink:href="#block"/><use x="467" y="368" xlink:href="#block"/><use x="500" y="368" xlink:href="#block"/><use x="599" y="368" xlink:href="#block"/><use x="632" y="368" xlink:href="#block"/><use x="731" y="368" xlink:href="#block"/><use x="764" y="368" xlink:href="#block"/><use x="830" y="368" xlink:href="#block"/><use x="896" y="368" xlink:href="#block"/><use x="995" y="368" xlink:href="#block"/><use x="71" y="401" xlink:href="#block"/><use x="104" y="401" xlink:href="#block"/><use x="203" y="401" xlink:href="#block"/><use x="269" y="401" xlink:href="#block"/><use x="302" y="401" xlink:href="#block"/><use x="368" y="401" xlink:href="#block"/><use x="401" y="401" xlink:href="#block"/><use x="467" y="401" xlink:href="#block"/><use x="500" y="401" xlink:href="#block"/><use x="566" y="401" xlink:href="#block"/><use x="599" y="401" xlink:href="#block"/><use x="632" y="401" xlink:href="#block"/><use x="665" y="401" xlink:href="#block"/><use x="764" y="401" xlink:href="#block"/><use x="797" y="401" xlink:href="#block"/><use x="830" y="401" xlink:href="#block"/><use x="896" y="401" xlink:href="#block"/><use x="929" y="401" xlink:href="#block"/><use x="995" y="401" xlink:href="#block"/><use x="1094" y="401" xlink:href="#block"/><use x="38" y="434" xlink:href="#block"/><use x="104" y="434" xlink:href="#block"/><use x="137" y="434" xlink:href="#block"/><use x="170" y="434" xlink:href="#block"/><use x="236" y="434" xlink:href="#block"/><use x="302" y="434" xlink:href="#block"/><use x="368" y="434" xlink:href="#block"/><use x="434" y="434" xlink:href="#block"/><use x="467" y="434" xlink:href="#block"/><use x="533" y="434" xlink:href="#block"/><use x="599" y="434" xlink:href="#block"/><use x="632" y="434" xlink:href="#block"/><use x="665" y="434" xlink:href="#block"/><use x="731" y="434" xlink:href="#block"/><use x="764" y="434" xlink:href="#block"/><use x="797" y="434" xlink:href="#block"/><use x="863" y="434" xlink:href="#block"/><use x="896" y="434" xlink:href="#block"/><use x="929" y="434" xlink:href="#block"/><use x="962" y="434" xlink:href="#block"/><use x="995" y="434" xlink:href="#block"/><use x="1028" y="434" xlink:href="#block"/><use x="1061" y="434" xlink:href="#block"/><use x="1094" y="434" xlink:href="#block"/><use x="38" y="467" xlink:href="#block"/><use x="71" y="467" xlink:href="#block"/><use x="104" y="467" xlink:href="#block"/><use x="269" y="467" xlink:href="#block"/><use x="335" y="467" xlink:href="#block"/><use x="401" y="467" xlink:href="#block"/><use x="434" y="467" xlink:href="#block"/><use x="500" y="467" xlink:href="#block"/><use x="566" y="467" xlink:href="#block"/><use x="599" y="467" xlink:href="#block"/><use x="632" y="467" xlink:href="#block"/><use x="764" y="467" xlink:href="#block"/><use x="896" y="467" xlink:href="#block"/><use x="995" y="467" xlink:href="#block"/><use x="104" y="500" xlink:href="#block"/><use x="137" y="500" xlink:href="#block"/><use x="170" y="500" xlink:href="#block"/><use x="236" y="500" xlink:href="#block"/><use x="269" y="500" xlink:href="#block"/><use x="368" y="500" xlink:href="#block"/><use x="401" y="500" xlink:href="#block"/><use x="434" y="500" xlink:href="#block"/><use x="467" y="500" xlink:href="#block"/><use x="500" y="500" xlink:href="#block"/><use x="533" y="500" xlink:href="#block"/><use x="698" y="500" xlink:href="#block"/><use x="764" y="500" xlink:href="#block"/><use x="830" y="500" xlink:href="#block"/><use x="863" y="500" xlink:href="#block"/><use x="896" y="500" xlink:href="#block"/><use x="929" y="500" xlink:href="#block"/><use x="962" y="500" xlink:href="#block"/><use x="1094" y="500" xlink:href="#block"/><use x="38" y="533" xlink:href="#block"/><use x="71" y="533" xlink:href="#block"/><use x="104" y="533" xlink:href="#block"/><use x="137" y="533" xlink:href="#block"/><use x="170" y="533" xlink:href="#block"/><use x="269" y="533" xlink:href="#block"/><use x="302" y="533" xlink:href="#block"/><use x="335" y="533" xlink:href="#block"/><use x="368" y="533" xlink:href="#block"/><use x="401" y="533" xlink:href="#block"/><use x="434" y="533" xlink:href="#block"/><use x="467" y="533" xlink:href="#block"/><use x="500" y="533" xlink:href="#block"/><use x="566" y="533" xlink:href="#block"/><use x="632" y="533" xlink:href="#block"/><use x="665" y="533" xlink:href="#block"/><use x="698" y="533" xlink:href="#block"/><use x="731" y="533" xlink:href="#block"/><use x="764" y="533" xlink:href="#block"/><use x="797" y="533" xlink:href="#block"/><use x="830" y="533" xlink:href="#block"/><use x="896" y="533" xlink:href="#block"/><use x="1094" y="533" xlink:href="#block"/><use x="38" y="566" xlink:href="#block"/><use x="71" y="566" xlink:href="#block"/><use x="137" y="566" xlink:href="#block"/><use x="203" y="566" xlink:href="#block"/><use x="236" y="566" xlink:href="#block"/><use x="269" y="566" xlink:href="#block"/><use x="302" y="566" xlink:href="#block"/><use x="368" y="566" xlink:href="#block"/><use x="401" y="566" xlink:href="#block"/><use x="467" y="566" xlink:href="#block"/><use x="500" y="566" xlink:href="#block"/><use x="566" y="566" xlink:href="#block"/><use x="599" y="566" xlink:href="#block"/><use x="764" y="566" xlink:href="#block"/><use x="797" y="566" xlink:href="#block"/><use x="830" y="566" xlink:href="#block"/><use x="962" y="566" xlink:href="#block"/><use x="995" y="566" xlink:href="#block"/><use x="1061" y="566" xlink:href="#block"/><use x="104" y="599" xlink:href="#block"/><use x="203" y="599" xlink:href="#block"/><use x="302" y="599" xlink:href="#block"/><use x="368" y="599" xlink:href="#block"/><use x="434" y="599" xlink:href="#block"/><use x="500" y="599" xlink:href="#block"/><use x="533" y="599" xlink:href="#block"/><use x="599" y="599" xlink:href="#block"/><use x="632" y="599" xlink:href="#block"/><use x="665" y="599" xlink:href="#block"/><use x="896" y="599" xlink:href="#block"/><use x="137" y="632" xlink:href="#block"/><use x="170" y="632" xlink:href="#block"/><use x="203" y="632" xlink:href="#block"/><use x="236" y="632" xlink:href="#block"/><use x="302" y="632" xlink:href="#block"/><use x="335" y="632" xlink:href="#block"/><use x="434" y="632" xlink:href="#block"/><use x="500" y="632" xlink:href="#block"/><use x="533" y="632" xlink:href="#block"/><use x="566" y="632" xlink:href="#block"/><use x="632" y="632" xlink:href="#block"/><use x="797" y="632" xlink:href="#block"/><use x="929" y="632" xlink:href="#block"/><use x="1028" y="632" xlink:href="#block"/><use x="1094" y="632" xlink:href="#block"/><use x="71" y="665" xlink:href="#block"/><use x="170" y="665" xlink:href="#block"/><use x="269" y="665" xlink:href="#block"/><use x="302" y="665" xlink:href="#block"/><use x="368" y="665" xlink:href="#block"/><use x="434" y="665" xlink:href="#block"/><use x="467" y="665" xlink:href="#block"/><use x="500" y="665" xlink:href="#block"/><use x="632" y="665" xlink:href="#block"/><use x="698" y="665" xlink:href="#block"/><use x="731" y="665" xlink:href="#block"/><use x="797" y="665" xlink:href="#block"/><use x="830" y="665" xlink:href="#block"/><use x="896" y="665" xlink:href="#block"/><use x="929" y="665" xlink:href="#block"/><use x="1028" y="665" xlink:href="#block"/><use x="1061" y="665" xlink:href="#block"/><use x="1094" y="665" xlink:href="#block"/><use x="71" y="698" xlink:href="#block"/><use x="104" y="698" xlink:href="#block"/><use x="236" y="698" xlink:href="#block"/><use x="269" y="698" xlink:href="#block"/><use x="368" y="698" xlink:href="#block"/><use x="434" y="698" xlink:href="#block"/><use x="467" y="698" xlink:href="#block"/><use x="566" y="698" xlink:href="#block"/><use x="599" y="698" xlink:href="#block"/><use x="632" y="698" xlink:href="#block"/><use x="665" y="698" xlink:href="#block"/><use x="731" y="698" xlink:href="#block"/><use x="797" y="698" xlink:href="#block"/><use x="962" y="698" xlink:href="#block"/><use x="1094" y="698" xlink:href="#block"/><use x="104" y="731" xlink:href="#block"/><use x="137" y="731" xlink:href="#block"/><use x="170" y="731" xlink:href="#block"/><use x="302" y="731" xlink:href="#block"/><use x="335" y="731" xlink:href="#block"/><use x="368" y="731" xlink:href="#block"/><use x="533" y="731" xlink:href="#block"/><use x="566" y="731" xlink:href="#block"/><use x="665" y="731" xlink:href="#block"/><use x="698" y="731" xlink:href="#block"/><use x="764" y="731" xlink:href="#block"/><use x="962" y="731" xlink:href="#block"/><use x="995" y="731" xlink:href="#block"/><use x="1061" y="731" xlink:href="#block"/><use x="38" y="764" xlink:href="#block"/><use x="71" y="764" xlink:href="#block"/><use x="104" y="764" xlink:href="#block"/><use x="170" y="764" xlink:href="#block"/><use x="236" y="764" xlink:href="#block"/><use x="269" y="764" xlink:href="#block"/><use x="368" y="764" xlink:href="#block"/><use x="434" y="764" xlink:href="#block"/><use x="467" y="764" xlink:href="#block"/><use x="764" y="764" xlink:href="#block"/><use x="797" y="764" xlink:href="#block"/><use x="896" y="764" xlink:href="#block"/><use x="929" y="764" xlink:href="#block"/><use x="995" y="764" xlink:href="#block"/><use x="1094" y="764" xlink:href="#block"/><use x="104" y="797" xlink:href="#block"/><use x="137" y="797" xlink:href="#block"/><use x="170" y="797" xlink:href="#block"/><use x="203" y="797" xlink:href="#block"/><use x="368" y="797" xlink:href="#block"/><use x="401" y="797" xlink:href="#block"/><use x="434" y="797" xlink:href="#block"/><use x="566" y="797" xlink:href="#block"/><use x="599" y="797" xlink:href="#block"/><use x="665" y="797" xlink:href="#block"/><use x="731" y="797" xlink:href="#block"/><use x="863" y="797" xlink:href="#block"/><use x="896" y="797" xlink:href="#block"/><use x="929" y="797" xlink:href="#block"/><use x="1028" y="797" xlink:href="#block"/><use x="1094" y="797" xlink:href="#block"/><use x="38" y="830" xlink:href="#block"/><use x="71" y="830" xlink:href="#block"/><use x="236" y="830" xlink:href="#block"/><use x="269" y="830" xlink:href="#block"/><use x="302" y="830" xlink:href="#block"/><use x="335" y="830" xlink:href="#block"/><use x="368" y="830" xlink:href="#block"/><use x="434" y="830" xlink:href="#block"/><use x="500" y="830" xlink:href="#block"/><use x="599" y="830" xlink:href="#block"/><use x="632" y="830" xlink:href="#block"/><use x="665" y="830" xlink:href="#block"/><use x="797" y="830" xlink:href="#block"/><use x="830" y="830" xlink:href="#block"/><use x="863" y="830" xlink:href="#block"/><use x="896" y="830" xlink:href="#block"/><use x="929" y="830" xlink:href="#block"/><use x="962" y="830" xlink:href="#block"/><use x="995" y="830" xlink:href="#block"/><use x="1028" y="830" xlink:href="#block"/><use x="1094" y="830" xlink:href="#block"/><use x="302" y="863" xlink:href="#block"/><use x="335" y="863" xlink:href="#block"/><use x="401" y="863" xlink:href="#block"/><use x="434" y="863" xlink:href="#block"/><use x="599" y="863" xlink:href="#block"/><use x="698" y="863" xlink:href="#block"/><use x="731" y="863" xlink:href="#block"/><use x="797" y="863" xlink:href="#block"/><use x="830" y="863" xlink:href="#block"/><use x="962" y="863" xlink:href="#block"/><use x="995" y="863" xlink:href="#block"/><use x="1061" y="863" xlink:href="#block"/><use x="1094" y="863" xlink:href="#block"/><use x="38" y="896" xlink:href="#block"/><use x="71" y="896" xlink:href="#block"/><use x="104" y="896" xlink:href="#block"/><use x="137" y="896" xlink:href="#block"/><use x="170" y="896" xlink:href="#block"/><use x="203" y="896" xlink:href="#block"/><use x="236" y="896" xlink:href="#block"/><use x="302" y="896" xlink:href="#block"/><use x="401" y="896" xlink:href="#block"/><use x="434" y="896" xlink:href="#block"/><use x="500" y="896" xlink:href="#block"/><use x="566" y="896" xlink:href="#block"/><use x="599" y="896" xlink:href="#block"/><use x="632" y="896" xlink:href="#block"/><use x="665" y="896" xlink:href="#block"/><use x="698" y="896" xlink:href="#block"/><use x="830" y="896" xlink:href="#block"/><use x="896" y="896" xlink:href="#block"/><use x="962" y="896" xlink:href="#block"/><use x="38" y="929" xlink:href="#block"/><use x="236" y="929" xlink:href="#block"/><use x="302" y="929" xlink:href="#block"/><use x="467" y="929" xlink:href="#block"/><use x="500" y="929" xlink:href="#block"/><use x="533" y="929" xlink:href="#block"/><use x="599" y="929" xlink:href="#block"/><use x="665" y="929" xlink:href="#block"/><use x="698" y="929" xlink:href="#block"/><use x="731" y="929" xlink:href="#block"/><use x="830" y="929" xlink:href="#block"/><use x="962" y="929" xlink:href="#block"/><use x="1028" y="929" xlink:href="#block"/><use x="1094" y="929" xlink:href="#block"/><use x="38" y="962" xlink:href="#block"/><use x="104" y="962" xlink:href="#block"/><use x="137" y="962" xlink:href="#block"/><use x="170" y="962" xlink:href="#block"/><use x="236" y="962" xlink:href="#block"/><use x="368" y="962" xlink:href="#block"/><use x="434" y="962" xlink:href="#block"/><use x="467" y="962" xlink:href="#block"/><use x="533" y="962" xlink:href="#block"/><use x="566" y="962" xlink:href="#block"/><use x="599" y="962" xlink:href="#block"/><use x="665" y="962" xlink:href="#block"/><use x="731" y="962" xlink:href="#block"/><use x="797" y="962" xlink:href="#block"/><use x="830" y="962" xlink:href="#block"/><use x="863" y="962" xlink:href="#block"/><use x="896" y="962" xlink:href="#block"/><use x="929" y="962" xlink:href="#block"/><use x="962" y="962" xlink:href="#block"/><use x="1028" y="962" xlink:href="#block"/><use x="1061" y="962" xlink:href="#block"/><use x="1094" y="962" xlink:href="#block"/><use x="38" y="995" xlink:href="#block"/><use x="104" y="995" xlink:href="#block"/><use x="137" y="995" xlink:href="#block"/><use x="170" y="995" xlink:href="#block"/><use x="236" y="995" xlink:href="#block"/><use x="335" y="995" xlink:href="#block"/><use x="368" y="995" xlink:href="#block"/><use x="500" y="995" xlink:href="#block"/><use x="599" y="995" xlink:href="#block"/><use x="830" y="995" xlink:href="#block"/><use x="863" y="995" xlink:href="#block"/><use x="1061" y="995" xlink:href="#block"/><use x="38" y="1028" xlink:href="#block"/><use x="104" y="1028" xlink:href="#block"/><use x="137" y="1028" xlink:href="#block"/><use x="170" y="1028" xlink:href="#block"/><use x="236" y="1028" xlink:href="#block"/><use x="302" y="1028" xlink:href="#block"/><use x="335" y="1028" xlink:href="#block"/><use x="368" y="1028" xlink:href="#block"/><use x="401" y="1028" xlink:href="#block"/><use x="434" y="1028" xlink:href="#block"/><use x="500" y="1028" xlink:href="#block"/><use x="632" y="1028" xlink:href="#block"/><use x="698" y="1028" xlink:href="#block"/><use x="731" y="1028" xlink:href="#block"/><use x="830" y="1028" xlink:href="#block"/><use x="863" y="1028" xlink:href="#block"/><use x="896" y="1028" xlink:href="#block"/><use x="929" y="1028" xlink:href="#block"/><use x="995" y="1028" xlink:href="#block"/><use x="1061" y="1028" xlink:href="#block"/><use x="1094" y="1028" xlink:href="#block"/><use x="38" y="1061" xlink:href="#block"/><use x="236" y="1061" xlink:href="#block"/><use x="335" y="1061" xlink:href="#block"/><use x="401" y="1061" xlink:href="#block"/><use x="566" y="1061" xlink:href="#block"/><use x="731" y="1061" xlink:href="#block"/><use x="830" y="1061" xlink:href="#block"/><use x="863" y="1061" xlink:href="#block"/><use x="962" y="1061" xlink:href="#block"/><use x="995" y="1061" xlink:href="#block"/><use x="1028" y="1061" xlink:href="#block"/><use x="1061" y="1061" xlink:href="#block"/><use x="1094" y="1061" xlink:href="#block"/><use x="38" y="1094" xlink:href="#block"/><use x="71" y="1094" xlink:href="#block"/><use x="104" y="1094" xlink:href="#block"/><use x="137" y="1094" xlink:href="#block"/><use x="170" y="1094" xlink:href="#block"/><use x="203" y="1094" xlink:href="#block"/><use x="236" y="1094" xlink:href="#block"/><use x="566" y="1094" xlink:href="#block"/><use x="599" y="1094" xlink:href="#block"/><use x="665" y="1094" xlink:href="#block"/><use x="731" y="1094" xlink:href="#block"/><use x="764" y="1094" xlink:href="#block"/><use x="797" y="1094" xlink:href="#block"/><use x="830" y="1094" xlink:href="#block"/><use x="962" y="1094" xlink:href="#block"/><use x="1094" y="1094" xlink:href="#block"/></svg>
